# xmcd
#
# Track frame offsets:
#	300
#	13973
#	29703
#	47800
#	64278
#	85162
#	104273
#	118266
#	140769
#	163115
#	179793
#	201342
#	220983
#	237084
#	251163
#	267749
#	280717
#	301048
#	320185
#
# Disc length: 4485 seconds
#
# Revision: 0
# Processed by: cddbd v1.5.1PL0 Copyright (c) Steve Scherf et al.
# Submitted via: audiograbber 1.83.01
#
DISCID=37118113
DTITLE=Shania Twain - The Very Best '99
DYEAR=1999
DGENRE=Country
TTITLE0=Come On Over
TTITLE1=Forget Me
TTITLE2=Man! I Feel Like A Woman
TTITLE3=You're Still The One
TTITLE4=I'm Outta Here
TTITLE5=I Won't Leave You Lonely
TTITLE6=What Made You Say That
TTITLE7=From This Moment On
TTITLE8=The Women In Me
TTITLE9=Don't Be Stupid
TTITLE10=If There Live After Love?
TTITLE11=If You Wanna Touch Her' Ask!
TTITLE12=I'm Holding' On To Love
TTITLE13=No One Needs To Know
TTITLE14=Love Gets My Every Time
TTITLE15=God Ain't Gonna Getcha For That
TTITLE16=Rock This Country!
TTITLE17=Any Man Of Mine
TTITLE18=That Don't Impress Me Much
EXTD=
EXTT0=
EXTT1=
EXTT2=
EXTT3=
EXTT4=
EXTT5=
EXTT6=
EXTT7=
EXTT8=
EXTT9=
EXTT10=
EXTT11=
EXTT12=
EXTT13=
EXTT14=
EXTT15=
EXTT16=
EXTT17=
EXTT18=
PLAYORDER=
